<svg data-v-fde0c5aa="" xmlns="http://www.w3.org/2000/svg" viewBox="0 0 300 300" class="iconLeftSlogan"><!----><defs data-v-fde0c5aa=""><!----></defs><rect data-v-fde0c5aa="" fill="#FFFFFF" x="0" y="0" width="300px" height="300px" class="logo-background-square"></rect><defs data-v-fde0c5aa=""><!----></defs><g data-v-fde0c5aa="" id="57cf3559-d661-4841-8755-43ab4cee23c8" fill="#3E3E3E" transform="matrix(2.7945649056322126,0,0,2.7945649056322126,122.25589524171627,114.13630081228511)"><path d="M2.77 14.35L2.77 10.05L7.06 10.05L7.06 8.74L2.77 8.74L2.77 5.89L7.49 5.89L7.49 4.58L1.20 4.58L1.20 14.35ZM16.23 14.35L16.23 13.15L15.32 13.15L15.32 9.52C15.32 7.87 14.20 6.96 12.38 6.96C10.85 6.96 9.87 7.62 9.46 8.40L10.37 9.14C10.77 8.54 11.31 8.15 12.24 8.15C13.27 8.15 13.79 8.65 13.79 9.62L13.79 10.18L12.40 10.18C10.26 10.18 9.24 10.93 9.24 12.33C9.24 13.69 10.19 14.52 11.66 14.52C12.80 14.52 13.55 14 13.83 13.13L13.90 13.13C13.99 13.86 14.42 14.35 15.29 14.35ZM12.10 13.40C11.28 13.40 10.78 13.06 10.78 12.42L10.78 12.14C10.78 11.49 11.31 11.14 12.43 11.14L13.79 11.14L13.79 12.19C13.79 12.91 13.08 13.40 12.10 13.40ZM17.86 14.35L23.93 14.35L23.93 13.12L21.31 13.12L21.31 10.42C21.31 9.41 21.97 8.58 23.21 8.58L24.64 8.58L24.64 7.13L23.77 7.13C22.30 7.13 21.67 8.04 21.39 9.04L21.31 9.04L21.31 7.13L17.86 7.13L17.86 8.36L19.78 8.36L19.78 13.12L17.86 13.12ZM26.38 14.35L27.90 14.35L27.90 9.45C27.90 8.61 28.69 8.20 29.47 8.20C30.45 8.20 30.97 8.78 30.97 9.93L30.97 14.35L32.49 14.35L32.49 9.70C32.49 7.95 31.51 6.96 30.06 6.96C28.87 6.96 28.28 7.60 27.97 8.36L27.90 8.36L27.90 3.99L26.38 3.99ZM41.43 14.35L41.43 13.15L40.52 13.15L40.52 9.52C40.52 7.87 39.40 6.96 37.58 6.96C36.05 6.96 35.07 7.62 34.66 8.40L35.57 9.14C35.97 8.54 36.51 8.15 37.44 8.15C38.47 8.15 38.99 8.65 38.99 9.62L38.99 10.18L37.60 10.18C35.46 10.18 34.44 10.93 34.44 12.33C34.44 13.69 35.39 14.52 36.86 14.52C38.00 14.52 38.75 14 39.03 13.13L39.10 13.13C39.19 13.86 39.62 14.35 40.49 14.35ZM37.30 13.40C36.48 13.40 35.98 13.06 35.98 12.42L35.98 12.14C35.98 11.49 36.51 11.14 37.63 11.14L38.99 11.14L38.99 12.19C38.99 12.91 38.28 13.40 37.30 13.40ZM47.77 14.35L49.29 14.35L49.29 3.99L47.77 3.99L47.77 8.36L47.68 8.36C47.26 7.49 46.56 6.96 45.50 6.96C43.81 6.96 42.71 8.26 42.71 10.74C42.71 13.22 43.81 14.52 45.50 14.52C46.56 14.52 47.26 13.99 47.68 13.12L47.77 13.12ZM46.13 13.27C44.98 13.27 44.32 12.50 44.32 11.33L44.32 10.15C44.32 8.97 44.98 8.20 46.13 8.20C47.01 8.20 47.77 8.65 47.77 9.53L47.77 11.94C47.77 12.82 47.01 13.27 46.13 13.27Z"></path></g><defs data-v-fde0c5aa=""><!----></defs><g data-v-fde0c5aa="" id="beffdbb6-2076-4bee-9bd3-f53a3d0feeb1" stroke="none" fill="#43b3a3" transform="matrix(1.7297120832615116,0,0,1.7297120832615116,31.33186894297988,105.02711385446229)"><path d="M21 17.993V14.99c0-.55.45-1 1-1h8c.55 0 1 .45 1 1v3.003h15.933c.09-2.076.078-4.224-.083-6.473-.25-3.47-1.44-5.78-3.55-6.86-3.78-1.93-9.54.74-13.7 3.32a6.662 6.662 0 0 1-6.94.02c-4.24-2.6-10.1-5.29-13.93-3.32-2.11 1.09-3.31 3.39-3.55 6.84a67.357 67.357 0 0 0-.147 6.473H21zM31 19.993v2.997c0 .56-.45 1-1 1h-8c-.55 0-1-.44-1-1v-2.997H5.116c.57 9.902 3.534 18.673 8.994 26.617.79 1.14 2.15 1.59 3.55 1.17 1.5-.45 2.54-1.72 2.57-3.16l.21-9.6c.06-2.76 2.54-5.01 5.57-5.09 3.03.08 5.52 2.33 5.58 5.09l.21 9.6c.04 1.7 1.46 2.93 2.84 3.27.28.07.56.11.83.11 1.06 0 1.98-.53 2.5-1.47 4.171-7.561 7.995-15.975 8.844-26.537H31z"></path></g><defs data-v-fde0c5aa=""><!----></defs><g data-v-fde0c5aa="" id="359b0225-9f8c-4c0f-814d-6d16c3b24858" fill="#43b3a3" transform="matrix(1.6847264935913855,0,0,1.6847264935913855,123.85725777266235,165.52205393664877)"><path d="M7.56 5.56C7.56 7.66 6.41 8.78 4.89 8.78L3.28 8.78L3.28 2.44L4.61 2.44C6.36 2.44 7.56 3.37 7.56 5.56ZM9.83 5.56C9.83 2.23 7.67 0.71 4.65 0.71L1.04 0.71L1.04 10.50L5.07 10.50C7.74 10.50 9.83 8.78 9.83 5.56ZM14.50 10.64C16.81 10.64 17.54 9.55 17.82 8.33L15.75 8.20C15.62 8.93 15.26 9.24 14.57 9.24C13.52 9.24 13.19 8.30 13.19 7.35L13.19 7.15L17.93 7.15C17.93 7.15 17.96 6.83 17.96 6.50C17.96 4.41 17.11 2.86 14.52 2.86C12.52 2.86 10.86 3.78 10.86 6.71C10.86 9.35 12.17 10.64 14.50 10.64ZM14.48 4.17C15.23 4.17 15.71 4.56 15.71 5.87L15.71 5.89L13.19 5.89C13.23 4.56 13.76 4.17 14.48 4.17ZM24.19 10.50L26.42 10.50L26.42 5.53C26.42 4.13 25.89 2.86 24.00 2.86C22.82 2.86 21.98 3.43 21.60 4.54C21.57 3.95 21.50 3.21 21.49 3.00L19.39 3.00C19.40 3.42 19.43 3.96 19.43 4.73L19.43 10.50L21.63 10.50L21.63 6.52C21.63 5.29 22.13 4.52 23.03 4.52C23.90 4.52 24.19 5.05 24.19 6.10ZM27.45 4.58L28.45 4.58L28.45 8.51C28.45 9.90 29.16 10.64 30.44 10.64C31.22 10.64 31.65 10.58 32.10 10.56L32.10 8.81L31.40 8.81C30.83 8.81 30.65 8.64 30.65 8.11L30.65 4.58L32.07 4.58L32.07 3.00L30.65 3.00L30.65 0.70L28.45 0.70L28.45 3.00L27.45 3.00ZM40.78 9.10L40.26 9.10C39.86 9.10 39.73 8.90 39.73 8.55L39.73 5.60C39.73 3.81 38.78 2.86 36.67 2.86C34.58 2.86 33.57 3.79 33.45 5.14L35.46 5.26C35.46 4.56 35.84 4.17 36.54 4.17C37.21 4.17 37.60 4.49 37.60 5.35L37.60 5.98L36.86 5.98C34.40 5.98 33.15 6.65 33.15 8.40C33.15 9.53 33.91 10.64 35.57 10.64C36.60 10.64 37.44 10.21 37.79 9.25C37.80 10.16 38.54 10.64 39.61 10.64C40.08 10.64 40.31 10.63 40.78 10.58ZM36.33 9.24C35.62 9.24 35.28 8.75 35.28 8.20C35.28 7.36 35.94 7.10 36.65 7.10L37.60 7.10L37.60 7.66C37.60 8.68 37.07 9.24 36.33 9.24ZM41.86 10.50L44.04 10.50L44.04-0.48L41.86-0.48ZM54.47 10.64C57.18 10.64 58.32 9.20 58.87 7.78L56.88 7.08C56.60 7.91 55.99 8.88 54.46 8.88C52.46 8.88 51.76 7.49 51.76 5.57C51.76 3.61 52.50 2.32 54.42 2.32C55.75 2.32 56.55 3.09 56.78 3.89L58.73 3.37C58.25 1.81 57.05 0.57 54.36 0.57C50.99 0.57 49.49 2.51 49.49 5.57C49.49 8.51 51.02 10.64 54.47 10.64ZM67.27 9.10L66.75 9.10C66.35 9.10 66.22 8.90 66.22 8.55L66.22 5.60C66.22 3.81 65.27 2.86 63.15 2.86C61.07 2.86 60.06 3.79 59.93 5.14L61.95 5.26C61.95 4.56 62.33 4.17 63.03 4.17C63.70 4.17 64.09 4.49 64.09 5.35L64.09 5.98L63.35 5.98C60.89 5.98 59.64 6.65 59.64 8.40C59.64 9.53 60.40 10.64 62.06 10.64C63.08 10.64 63.92 10.21 64.27 9.25C64.29 10.16 65.03 10.64 66.09 10.64C66.57 10.64 66.79 10.63 67.27 10.58ZM62.82 9.24C62.10 9.24 61.77 8.75 61.77 8.20C61.77 7.36 62.43 7.10 63.14 7.10L64.09 7.10L64.09 7.66C64.09 8.68 63.56 9.24 62.82 9.24ZM73.02 4.75L73.02 2.88C72.86 2.86 72.65 2.86 72.55 2.86C71.43 2.86 70.80 3.50 70.59 4.35C70.57 3.92 70.52 3.33 70.49 3.00L68.33 3.00C68.36 3.16 68.40 4.30 68.40 4.77L68.40 10.50L70.62 10.50L70.62 6.61C70.62 5.49 71.13 4.70 72.28 4.70C72.52 4.70 72.72 4.70 73.02 4.75ZM77.35 10.64C79.66 10.64 80.39 9.55 80.67 8.33L78.60 8.20C78.47 8.93 78.11 9.24 77.42 9.24C76.37 9.24 76.03 8.30 76.03 7.35L76.03 7.15L80.78 7.15C80.78 7.15 80.81 6.83 80.81 6.50C80.81 4.41 79.95 2.86 77.36 2.86C75.36 2.86 73.71 3.78 73.71 6.71C73.71 9.35 75.01 10.64 77.35 10.64ZM77.32 4.17C78.08 4.17 78.55 4.56 78.55 5.87L78.55 5.89L76.03 5.89C76.08 4.56 76.61 4.17 77.32 4.17Z"></path></g></svg>