<svg data-v-423bf9ae="" xmlns="http://www.w3.org/2000/svg" viewBox="0 0 274.01707701829804 60" class="font"><!----><!----><!----><g data-v-423bf9ae="" id="16dbe674-cb00-4071-aadb-620bee94ac60" fill="white" transform="matrix(5.6980053264473165,0,0,5.6980053264473165,-6.837602873317252,-22.735042022120943)"><path d="M2.77 14.35L2.77 10.05L7.06 10.05L7.06 8.74L2.77 8.74L2.77 5.89L7.49 5.89L7.49 4.58L1.20 4.58L1.20 14.35ZM16.23 14.35L16.23 13.15L15.32 13.15L15.32 9.52C15.32 7.87 14.20 6.96 12.38 6.96C10.85 6.96 9.87 7.62 9.46 8.40L10.37 9.14C10.77 8.54 11.31 8.15 12.24 8.15C13.27 8.15 13.79 8.65 13.79 9.62L13.79 10.18L12.40 10.18C10.26 10.18 9.24 10.93 9.24 12.33C9.24 13.69 10.19 14.52 11.66 14.52C12.80 14.52 13.55 14 13.83 13.13L13.90 13.13C13.99 13.86 14.42 14.35 15.29 14.35ZM12.10 13.40C11.28 13.40 10.78 13.06 10.78 12.42L10.78 12.14C10.78 11.49 11.31 11.14 12.43 11.14L13.79 11.14L13.79 12.19C13.79 12.91 13.08 13.40 12.10 13.40ZM17.86 14.35L23.93 14.35L23.93 13.12L21.31 13.12L21.31 10.42C21.31 9.41 21.97 8.58 23.21 8.58L24.64 8.58L24.64 7.13L23.77 7.13C22.30 7.13 21.67 8.04 21.39 9.04L21.31 9.04L21.31 7.13L17.86 7.13L17.86 8.36L19.78 8.36L19.78 13.12L17.86 13.12ZM26.38 14.35L27.90 14.35L27.90 9.45C27.90 8.61 28.69 8.20 29.47 8.20C30.45 8.20 30.97 8.78 30.97 9.93L30.97 14.35L32.49 14.35L32.49 9.70C32.49 7.95 31.51 6.96 30.06 6.96C28.87 6.96 28.28 7.60 27.97 8.36L27.90 8.36L27.90 3.99L26.38 3.99ZM41.43 14.35L41.43 13.15L40.52 13.15L40.52 9.52C40.52 7.87 39.40 6.96 37.58 6.96C36.05 6.96 35.07 7.62 34.66 8.40L35.57 9.14C35.97 8.54 36.51 8.15 37.44 8.15C38.47 8.15 38.99 8.65 38.99 9.62L38.99 10.18L37.60 10.18C35.46 10.18 34.44 10.93 34.44 12.33C34.44 13.69 35.39 14.52 36.86 14.52C38.00 14.52 38.75 14 39.03 13.13L39.10 13.13C39.19 13.86 39.62 14.35 40.49 14.35ZM37.30 13.40C36.48 13.40 35.98 13.06 35.98 12.42L35.98 12.14C35.98 11.49 36.51 11.14 37.63 11.14L38.99 11.14L38.99 12.19C38.99 12.91 38.28 13.40 37.30 13.40ZM47.77 14.35L49.29 14.35L49.29 3.99L47.77 3.99L47.77 8.36L47.68 8.36C47.26 7.49 46.56 6.96 45.50 6.96C43.81 6.96 42.71 8.26 42.71 10.74C42.71 13.22 43.81 14.52 45.50 14.52C46.56 14.52 47.26 13.99 47.68 13.12L47.77 13.12ZM46.13 13.27C44.98 13.27 44.32 12.50 44.32 11.33L44.32 10.15C44.32 8.97 44.98 8.20 46.13 8.20C47.01 8.20 47.77 8.65 47.77 9.53L47.77 11.94C47.77 12.82 47.01 13.27 46.13 13.27Z"></path></g><!----><!----></svg>